<?xml version="1.0" standalone="no"?>
<!DOCTYPE svg PUBLIC "-//W3C//DTD SVG 20010904//EN"
 "http://www.w3.org/TR/2001/REC-SVG-20010904/DTD/svg10.dtd">
<svg version="1.0" xmlns="http://www.w3.org/2000/svg"
 width="345.000000pt" height="345.000000pt" viewBox="0 0 345.000000 345.000000"
 preserveAspectRatio="xMidYMid meet">
<metadata>
Created by potrace 1.11, written by Peter Selinger 2001-2013
</metadata>
<g transform="translate(0.000000,345.000000) scale(0.100000,-0.100000)"
fill="#000000" stroke="none">
<path d="M0 1725 l0 -1725 1725 0 1725 0 0 615 0 615 -154 0 -154 0 -5 423
c-4 447 -7 474 -52 517 -12 12 -38 23 -58 27 -33 5 -41 1 -76 -33 -21 -22 -45
-57 -52 -79 -9 -29 -14 -152 -16 -447 l-4 -408 -180 0 -179 0 0 675 0 675 165
0 164 0 3 -102 3 -103 38 57 c46 68 113 131 164 154 52 23 184 23 236 0 46
-20 109 -82 136 -133 l20 -38 1 518 0 517 -1725 0 -1725 0 0 -1725z m771 1381
c209 -45 325 -190 364 -455 7 -47 12 -87 12 -87 -4 -4 -370 -35 -372 -32 -1 2
-7 28 -14 58 -18 83 -49 131 -101 158 -24 12 -57 22 -73 22 -108 0 -172 -130
-106 -214 27 -34 57 -49 197 -97 300 -104 433 -221 486 -432 49 -192 14 -445
-84 -596 -104 -160 -245 -231 -460 -231 -275 0 -431 100 -518 333 -45 119 -76
317 -51 317 8 0 79 7 159 15 222 22 206 25 214 -40 19 -165 112 -266 231 -252
162 18 199 260 54 349 -24 15 -97 48 -162 72 -65 25 -139 57 -166 71 -128 70
-219 173 -262 296 -28 79 -37 259 -19 352 28 147 130 294 243 351 105 53 290
71 428 42z m1251 -527 c183 -61 292 -225 333 -496 8 -54 15 -146 15 -205 l0
-108 -350 0 -350 0 6 -42 c17 -110 74 -198 139 -214 61 -15 128 20 175 94 l15
23 165 -22 c91 -12 169 -25 174 -30 15 -14 -72 -173 -130 -237 -88 -97 -202
-141 -371 -142 -219 -1 -346 76 -439 264 -61 125 -84 222 -91 387 -12 272 49
477 181 617 100 106 207 146 369 137 60 -3 122 -13 159 -26z"/>
<path d="M1806 2290 c-15 -5 -37 -17 -48 -27 -28 -25 -65 -101 -73 -149 -3
-21 -8 -49 -11 -61 l-4 -23 170 0 c129 0 170 3 170 13 -1 38 -32 153 -50 182
-35 57 -96 82 -154 65z"/>
</g>
</svg>
